G04 Layer_Color=16711935*
%FSTAX24Y24*%
%MOIN*%
G70*
G01*
G75*
%ADD19C,0.0150*%
%ADD40C,0.0039*%
D19*
X032638Y043898D02*
X038937D01*
X032638Y034449D02*
Y043898D01*
X038937Y034449D02*
Y043898D01*
X032638Y034449D02*
X038937D01*
D40*
X030876Y040955D02*
Y041171D01*
X030463Y040955D02*
Y041171D01*
Y040955D02*
X030876D01*
X030463Y041171D02*
X030876D01*
X030866Y040453D02*
Y04065D01*
X030472Y040453D02*
Y04065D01*
Y040453D02*
X030866D01*
X030472Y04065D02*
X030866D01*
Y038878D02*
Y039075D01*
X030472Y038878D02*
Y039075D01*
Y038878D02*
X030866D01*
X030472Y039075D02*
X030866D01*
X040709Y035728D02*
Y035925D01*
X040315Y035728D02*
Y035925D01*
Y035728D02*
X040709D01*
X040315Y035925D02*
X040709D01*
X042126Y036516D02*
Y036713D01*
X041732Y036516D02*
Y036713D01*
Y036516D02*
X042126D01*
X041732Y036713D02*
X042126D01*
X040315Y036516D02*
Y036713D01*
X040709Y036516D02*
Y036713D01*
X040315D02*
X040709D01*
X040315Y036516D02*
X040709D01*
X042126Y038524D02*
Y03872D01*
X041732Y038524D02*
Y03872D01*
Y038524D02*
X042126D01*
X041732Y03872D02*
X042126D01*
X029902Y034429D02*
X030256D01*
X029902Y035098D02*
X030256D01*
X029902Y034429D02*
Y035098D01*
X030256Y034429D02*
Y035098D01*
X03064Y034557D02*
Y03497D01*
X030856Y034557D02*
Y03497D01*
X03064Y034557D02*
X030856D01*
X03064Y03497D02*
X030856D01*
M02*
