G04 Layer_Color=8388736*
%FSTAX24Y24*%
%MOIN*%
G70*
G01*
G75*
%ADD29R,0.0671X0.0671*%
%ADD30R,0.0297X0.0281*%
%ADD31R,0.0257X0.0297*%
%ADD32R,0.1143X0.0474*%
%ADD33R,0.0474X0.1064*%
%ADD34R,0.0454X0.0375*%
%ADD35R,0.0281X0.0297*%
%ADD36C,0.0671*%
%ADD37R,0.0671X0.0671*%
D29*
X027598Y042402D02*
D03*
X030669D02*
D03*
D30*
X030492Y041063D02*
D03*
X030846D02*
D03*
D31*
X030866Y040551D02*
D03*
X030472D02*
D03*
X030866Y038976D02*
D03*
X030472D02*
D03*
X040709Y035827D02*
D03*
X040315D02*
D03*
X042126Y036614D02*
D03*
X041732D02*
D03*
X040315D02*
D03*
X040709D02*
D03*
X042126Y038622D02*
D03*
X041732D02*
D03*
D32*
X038898Y040551D02*
D03*
Y039764D02*
D03*
Y038976D02*
D03*
Y038189D02*
D03*
Y037402D02*
D03*
Y036614D02*
D03*
Y035827D02*
D03*
Y035039D02*
D03*
X032677Y040551D02*
D03*
Y039764D02*
D03*
Y038976D02*
D03*
Y038189D02*
D03*
Y037402D02*
D03*
Y036614D02*
D03*
Y035827D02*
D03*
Y035039D02*
D03*
D33*
X033819Y034488D02*
D03*
X034606D02*
D03*
X035394D02*
D03*
X036181D02*
D03*
X036969D02*
D03*
X037756D02*
D03*
D34*
X030079Y03503D02*
D03*
Y034498D02*
D03*
D35*
X030748Y034941D02*
D03*
Y034587D02*
D03*
D36*
X043386Y040087D02*
D03*
Y041087D02*
D03*
Y042087D02*
D03*
Y037583D02*
D03*
Y038583D02*
D03*
D37*
Y043087D02*
D03*
Y036583D02*
D03*
M02*
