G04 Layer_Physical_Order=2*
G04 Layer_Color=16711680*
%FSTAX24Y24*%
%MOIN*%
G70*
G01*
G75*
%ADD17C,0.0250*%
%ADD18C,0.0100*%
%ADD19C,0.0150*%
%ADD21C,0.0300*%
%ADD22C,0.0591*%
%ADD23R,0.0591X0.0591*%
%ADD24C,0.0472*%
%ADD25R,0.0945X0.0291*%
G36*
X044149Y030709D02*
X04252D01*
Y032205D01*
X042577D01*
X042579Y032203D01*
X042618Y032195D01*
X043563D01*
X043602Y032203D01*
X043605Y032205D01*
X044149D01*
Y030709D01*
D02*
G37*
G36*
Y032307D02*
X043665D01*
Y032589D01*
X043657Y032628D01*
X043635Y032661D01*
X043632Y032663D01*
Y032723D01*
X043635Y032725D01*
X043657Y032758D01*
X043665Y032797D01*
Y033089D01*
X043657Y033128D01*
X043635Y033161D01*
X043632Y033163D01*
Y033223D01*
X043635Y033225D01*
X043657Y033258D01*
X043665Y033297D01*
Y033589D01*
X043657Y033628D01*
X043635Y033661D01*
X043632Y033663D01*
Y033723D01*
X043635Y033725D01*
X043657Y033758D01*
X043665Y033797D01*
Y034089D01*
X043657Y034128D01*
X043635Y034161D01*
X043602Y034183D01*
X043563Y034191D01*
X042618D01*
X042573Y034233D01*
Y039057D01*
X043236Y039721D01*
X043283Y039702D01*
X043386Y039688D01*
X043489Y039702D01*
X043585Y039741D01*
X043668Y039805D01*
X043731Y039887D01*
X043771Y039983D01*
X043785Y040087D01*
X043771Y04019D01*
X043731Y040286D01*
X043668Y040369D01*
X043585Y040432D01*
X043489Y040472D01*
X043386Y040485D01*
X043283Y040472D01*
X043186Y040432D01*
X043104Y040369D01*
X043041Y040286D01*
X043001Y04019D01*
X042987Y040087D01*
X043001Y039983D01*
X04302Y039937D01*
X042419Y039336D01*
X042373Y039355D01*
Y039857D01*
X043236Y040721D01*
X043283Y040702D01*
X043386Y040688D01*
X043489Y040702D01*
X043585Y040741D01*
X043668Y040805D01*
X043731Y040887D01*
X043771Y040983D01*
X043785Y041087D01*
X043771Y04119D01*
X043731Y041286D01*
X043668Y041369D01*
X043585Y041432D01*
X043489Y041472D01*
X043386Y041485D01*
X043283Y041472D01*
X043186Y041432D01*
X043104Y041369D01*
X043041Y041286D01*
X043001Y04119D01*
X042987Y041087D01*
X043001Y040983D01*
X04302Y040937D01*
X042112Y040029D01*
X042079Y039979D01*
X042067Y039921D01*
Y035026D01*
X042017Y035004D01*
X041995Y035023D01*
Y041335D01*
X043349Y042689D01*
X043681D01*
X04372Y042697D01*
X043753Y042719D01*
X043775Y042752D01*
X043783Y042791D01*
Y043382D01*
X043775Y043421D01*
X043753Y043454D01*
X04372Y043476D01*
X043681Y043484D01*
X043091D01*
X043052Y043476D01*
X043018Y043454D01*
X042996Y043421D01*
X042989Y043382D01*
Y04305D01*
X04156Y041621D01*
X041505Y041538D01*
X041485Y041441D01*
Y03501D01*
X041446Y03496D01*
X041412Y034878D01*
X041401Y03479D01*
X041412Y034702D01*
X041446Y03462D01*
X0415Y03455D01*
X04157Y034496D01*
X041652Y034462D01*
X04174Y034451D01*
X041828Y034462D01*
X04191Y034496D01*
X04198Y03455D01*
X042017Y034599D01*
X042067Y034582D01*
Y034234D01*
X042028Y034191D01*
X041083D01*
X041044Y034183D01*
X041011Y034161D01*
X040988Y034128D01*
X040987Y034121D01*
X032091D01*
X031718Y034494D01*
Y038683D01*
X03178Y03873D01*
X031834Y0388D01*
X031868Y038882D01*
X031879Y03897D01*
X031868Y039058D01*
X031834Y03914D01*
X03178Y03921D01*
X03171Y039264D01*
X031628Y039298D01*
X03154Y039309D01*
X031452Y039298D01*
X03137Y039264D01*
X0313Y03921D01*
X031246Y03914D01*
X031212Y039058D01*
X031201Y03897D01*
X031212Y038882D01*
X031246Y0388D01*
X0313Y03873D01*
X031362Y038683D01*
Y03442D01*
X031375Y034352D01*
X031414Y034294D01*
X031891Y033817D01*
X031949Y033778D01*
X032017Y033764D01*
X032017Y033764D01*
X040987D01*
X040988Y033758D01*
X041011Y033725D01*
X041014Y033723D01*
Y033663D01*
X041011Y033661D01*
X040988Y033628D01*
X040987Y033621D01*
X031661D01*
X031098Y034184D01*
Y039386D01*
X031596Y039884D01*
X031596Y039884D01*
X031635Y039942D01*
X031648Y04001D01*
Y040283D01*
X03171Y04033D01*
X031764Y0404D01*
X031798Y040482D01*
X031809Y04057D01*
X031798Y040658D01*
X031764Y04074D01*
X03171Y04081D01*
X03164Y040864D01*
X031558Y040898D01*
X03147Y040909D01*
X031382Y040898D01*
X0313Y040864D01*
X03123Y04081D01*
X031176Y04074D01*
X031142Y040658D01*
X031131Y04057D01*
X031142Y040482D01*
X031176Y0404D01*
X03123Y04033D01*
X031292Y040283D01*
Y040084D01*
X030794Y039586D01*
X030755Y039528D01*
X030742Y03946D01*
Y03411D01*
X030755Y034042D01*
X030794Y033984D01*
X031461Y033317D01*
X031461Y033317D01*
X031519Y033278D01*
X031587Y033264D01*
X040987D01*
X040988Y033258D01*
X041011Y033225D01*
X041014Y033223D01*
Y033163D01*
X041011Y033161D01*
X040988Y033128D01*
X040981Y033089D01*
Y032797D01*
X040988Y032758D01*
X041011Y032725D01*
X041014Y032723D01*
Y032663D01*
X041011Y032661D01*
X040988Y032628D01*
X040981Y032589D01*
Y032297D01*
X040988Y032258D01*
X041011Y032225D01*
X041014Y032223D01*
Y032163D01*
X041011Y032161D01*
X040988Y032128D01*
X040981Y032089D01*
Y031797D01*
X040988Y031758D01*
X041011Y031725D01*
X041014Y031723D01*
Y031663D01*
X041011Y031661D01*
X040988Y031628D01*
X040981Y031589D01*
Y031297D01*
X040988Y031258D01*
X041011Y031225D01*
X041014Y031223D01*
Y031163D01*
X041011Y031161D01*
X040988Y031128D01*
X040981Y031089D01*
Y030797D01*
X040988Y030758D01*
X041011Y030725D01*
X041014Y030723D01*
Y030663D01*
X041011Y030661D01*
X040988Y030628D01*
X040981Y030589D01*
Y030297D01*
X040988Y030258D01*
X041011Y030225D01*
X041014Y030223D01*
Y030163D01*
X041011Y030161D01*
X040988Y030128D01*
X040981Y030089D01*
Y029797D01*
X040988Y029758D01*
X041011Y029725D01*
X041014Y029723D01*
Y029663D01*
X041011Y029661D01*
X040988Y029628D01*
X040981Y029589D01*
Y029297D01*
X040988Y029258D01*
X041011Y029225D01*
X041044Y029203D01*
X041083Y029195D01*
X042028D01*
X042067Y029203D01*
X0421Y029225D01*
X042122Y029258D01*
X04213Y029297D01*
Y029589D01*
X042122Y029628D01*
X0421Y029661D01*
X042096Y029663D01*
Y029723D01*
X0421Y029725D01*
X042122Y029758D01*
X04213Y029797D01*
Y030089D01*
X042122Y030128D01*
X0421Y030161D01*
X042096Y030163D01*
Y030223D01*
X0421Y030225D01*
X042122Y030258D01*
X04213Y030297D01*
Y030589D01*
X042122Y030628D01*
X0421Y030661D01*
X042096Y030663D01*
Y030723D01*
X0421Y030725D01*
X042122Y030758D01*
X04213Y030797D01*
Y031089D01*
X042122Y031128D01*
X0421Y031161D01*
X042096Y031163D01*
Y031223D01*
X0421Y031225D01*
X042122Y031258D01*
X04213Y031297D01*
Y031589D01*
X042122Y031628D01*
X0421Y031661D01*
X042096Y031663D01*
Y031723D01*
X0421Y031725D01*
X042122Y031758D01*
X04213Y031797D01*
Y032089D01*
X042122Y032128D01*
X0421Y032161D01*
X042096Y032163D01*
Y032223D01*
X0421Y032225D01*
X042122Y032258D01*
X04213Y032297D01*
Y032403D01*
X042478Y032752D01*
X042536Y032739D01*
X042546Y032725D01*
X042549Y032723D01*
Y032663D01*
X042546Y032661D01*
X042524Y032628D01*
X042516Y032589D01*
Y032306D01*
X042481Y032299D01*
X042448Y032277D01*
X042425Y032244D01*
X042418Y032205D01*
Y030709D01*
X042425Y03067D01*
X042448Y030637D01*
X042481Y030614D01*
X04252Y030607D01*
X043871D01*
X043893Y030604D01*
X043915Y030607D01*
X044149D01*
Y026718D01*
X026718D01*
Y044149D01*
X032456D01*
Y040925D01*
X032467Y040871D01*
X032497Y040824D01*
X032544Y040793D01*
X032598Y040782D01*
X038976D01*
X039031Y040793D01*
X039077Y040824D01*
X039108Y040871D01*
X039119Y040925D01*
Y044149D01*
X044149D01*
Y032307D01*
D02*
G37*
%LPC*%
G36*
X043681Y03698D02*
X043091D01*
X043052Y036972D01*
X043018Y03695D01*
X042996Y036917D01*
X042989Y036878D01*
Y036287D01*
X042996Y036248D01*
X043018Y036215D01*
X043052Y036193D01*
X043091Y036185D01*
X043681D01*
X04372Y036193D01*
X043753Y036215D01*
X043775Y036248D01*
X043783Y036287D01*
Y036878D01*
X043775Y036917D01*
X043753Y03695D01*
X04372Y036972D01*
X043681Y03698D01*
D02*
G37*
G36*
X043386Y038981D02*
X043283Y038968D01*
X043186Y038928D01*
X043104Y038865D01*
X043041Y038782D01*
X043001Y038686D01*
X042987Y038583D01*
X043001Y038479D01*
X043041Y038383D01*
X043104Y038301D01*
X043186Y038237D01*
X043283Y038198D01*
X043386Y038184D01*
X043489Y038198D01*
X043585Y038237D01*
X043668Y038301D01*
X043731Y038383D01*
X043771Y038479D01*
X043785Y038583D01*
X043771Y038686D01*
X043731Y038782D01*
X043668Y038865D01*
X043585Y038928D01*
X043489Y038968D01*
X043386Y038981D01*
D02*
G37*
G36*
Y037981D02*
X043283Y037968D01*
X043186Y037928D01*
X043104Y037865D01*
X043041Y037782D01*
X043001Y037686D01*
X042987Y037583D01*
X043001Y037479D01*
X043041Y037383D01*
X043104Y037301D01*
X043186Y037237D01*
X043283Y037198D01*
X043386Y037184D01*
X043489Y037198D01*
X043585Y037237D01*
X043668Y037301D01*
X043731Y037383D01*
X043771Y037479D01*
X043785Y037583D01*
X043771Y037686D01*
X043731Y037782D01*
X043668Y037865D01*
X043585Y037928D01*
X043489Y037968D01*
X043386Y037981D01*
D02*
G37*
%LPD*%
D17*
X043091Y030943D02*
Y031443D01*
Y031943D01*
Y031443D02*
X043907D01*
X043091Y031943D02*
X043897D01*
X043091Y030943D02*
X043893D01*
D18*
X041555Y032943D02*
X041943D01*
X04222Y03322D01*
Y039921D01*
X043386Y041087D01*
X041555Y032443D02*
X041953D01*
X04242Y03291D01*
Y039121D01*
X043386Y040087D01*
D19*
X03154Y03442D02*
X032017Y033943D01*
X03154Y03442D02*
Y03897D01*
X032017Y033943D02*
X041555D01*
X03092Y03411D02*
X031587Y033443D01*
X03092Y03411D02*
Y03946D01*
X03147Y04001D01*
Y04057D01*
X031587Y033443D02*
X041555D01*
D21*
X04174Y041441D02*
X043386Y043087D01*
X04174Y03479D02*
Y041441D01*
D22*
X043386Y040087D02*
D03*
Y041087D02*
D03*
Y042087D02*
D03*
Y037583D02*
D03*
Y038583D02*
D03*
D23*
Y043087D02*
D03*
Y036583D02*
D03*
D24*
X043907Y031443D02*
D03*
X043897Y031943D02*
D03*
X043893Y030943D02*
D03*
X03154Y03897D02*
D03*
X03147Y04057D02*
D03*
X04174Y03479D02*
D03*
X032087Y043701D02*
D03*
Y042717D02*
D03*
Y041732D02*
D03*
X030906Y043701D02*
D03*
X029528D02*
D03*
X028346D02*
D03*
X027165D02*
D03*
Y041535D02*
D03*
Y039764D02*
D03*
Y037992D02*
D03*
Y036024D02*
D03*
Y033661D02*
D03*
Y031299D02*
D03*
Y029134D02*
D03*
Y027165D02*
D03*
X028937D02*
D03*
X030709D02*
D03*
X032677D02*
D03*
X034449D02*
D03*
X036024D02*
D03*
X037992D02*
D03*
X040354D02*
D03*
X042323D02*
D03*
X043701D02*
D03*
Y028543D02*
D03*
X039961Y028937D02*
D03*
X030709Y032835D02*
D03*
X031693D02*
D03*
X032677D02*
D03*
X039961Y034843D02*
D03*
X040748D02*
D03*
X040551Y038976D02*
D03*
Y038189D02*
D03*
X034449Y040354D02*
D03*
X036417D02*
D03*
X037795D02*
D03*
X039567Y043701D02*
D03*
Y042717D02*
D03*
Y041732D02*
D03*
X041142Y043701D02*
D03*
X042717D02*
D03*
X043701Y035236D02*
D03*
X038583Y032835D02*
D03*
X039961D02*
D03*
X034449Y035827D02*
D03*
X035827D02*
D03*
X037402D02*
D03*
D25*
X043091Y033943D02*
D03*
Y033443D02*
D03*
Y032943D02*
D03*
Y032443D02*
D03*
Y031943D02*
D03*
Y031443D02*
D03*
Y030943D02*
D03*
Y030443D02*
D03*
Y029943D02*
D03*
Y029443D02*
D03*
X041555Y033943D02*
D03*
Y033443D02*
D03*
X041555Y032943D02*
D03*
X041555Y032443D02*
D03*
Y031943D02*
D03*
Y031443D02*
D03*
Y030943D02*
D03*
X041555Y030443D02*
D03*
X041555Y029943D02*
D03*
Y029443D02*
D03*
M02*
