G04 Layer_Color=2752767*
%FSTAX24Y24*%
%MOIN*%
G70*
G01*
G75*
%ADD43C,0.0020*%
%ADD44C,0.0027*%
D43*
X043306Y040007D02*
Y040167D01*
X043466D01*
Y040007D01*
X043306D01*
Y041007D02*
Y041167D01*
X043466D01*
Y041007D01*
X043306D01*
Y042007D02*
Y042167D01*
X043466D01*
Y042007D01*
X043306D01*
Y043007D02*
Y043167D01*
X043466D01*
Y043007D01*
X043306D01*
Y036503D02*
Y036663D01*
X043466D01*
Y036503D01*
X043306D01*
Y037503D02*
Y037663D01*
X043466D01*
Y037503D01*
X043306D01*
Y038503D02*
Y038663D01*
X043466D01*
Y038503D01*
X043306D01*
D44*
X043987Y031443D02*
G03*
X043987Y031443I-00008J0D01*
G01*
X043977Y031943D02*
G03*
X043977Y031943I-00008J0D01*
G01*
X043973Y030943D02*
G03*
X043973Y030943I-00008J0D01*
G01*
X03162Y03897D02*
G03*
X03162Y03897I-00008J0D01*
G01*
X03155Y04057D02*
G03*
X03155Y04057I-00008J0D01*
G01*
X04182Y03479D02*
G03*
X04182Y03479I-00008J0D01*
G01*
X032167Y043701D02*
G03*
X032167Y043701I-00008J0D01*
G01*
Y042717D02*
G03*
X032167Y042717I-00008J0D01*
G01*
Y041732D02*
G03*
X032167Y041732I-00008J0D01*
G01*
X030986Y043701D02*
G03*
X030986Y043701I-00008J0D01*
G01*
X029608D02*
G03*
X029608Y043701I-00008J0D01*
G01*
X028426D02*
G03*
X028426Y043701I-00008J0D01*
G01*
X027245D02*
G03*
X027245Y043701I-00008J0D01*
G01*
Y041535D02*
G03*
X027245Y041535I-00008J0D01*
G01*
Y039764D02*
G03*
X027245Y039764I-00008J0D01*
G01*
Y037992D02*
G03*
X027245Y037992I-00008J0D01*
G01*
Y036024D02*
G03*
X027245Y036024I-00008J0D01*
G01*
Y033661D02*
G03*
X027245Y033661I-00008J0D01*
G01*
Y031299D02*
G03*
X027245Y031299I-00008J0D01*
G01*
Y029134D02*
G03*
X027245Y029134I-00008J0D01*
G01*
Y027165D02*
G03*
X027245Y027165I-00008J0D01*
G01*
X029017D02*
G03*
X029017Y027165I-00008J0D01*
G01*
X030789D02*
G03*
X030789Y027165I-00008J0D01*
G01*
X032757D02*
G03*
X032757Y027165I-00008J0D01*
G01*
X034529D02*
G03*
X034529Y027165I-00008J0D01*
G01*
X036104D02*
G03*
X036104Y027165I-00008J0D01*
G01*
X038072D02*
G03*
X038072Y027165I-00008J0D01*
G01*
X040434D02*
G03*
X040434Y027165I-00008J0D01*
G01*
X042403D02*
G03*
X042403Y027165I-00008J0D01*
G01*
X043781D02*
G03*
X043781Y027165I-00008J0D01*
G01*
Y028543D02*
G03*
X043781Y028543I-00008J0D01*
G01*
X040041Y028937D02*
G03*
X040041Y028937I-00008J0D01*
G01*
X030789Y032835D02*
G03*
X030789Y032835I-00008J0D01*
G01*
X031773D02*
G03*
X031773Y032835I-00008J0D01*
G01*
X032757D02*
G03*
X032757Y032835I-00008J0D01*
G01*
X040041Y034843D02*
G03*
X040041Y034843I-00008J0D01*
G01*
X040828D02*
G03*
X040828Y034843I-00008J0D01*
G01*
X040631Y038976D02*
G03*
X040631Y038976I-00008J0D01*
G01*
Y038189D02*
G03*
X040631Y038189I-00008J0D01*
G01*
X034529Y040354D02*
G03*
X034529Y040354I-00008J0D01*
G01*
X036497D02*
G03*
X036497Y040354I-00008J0D01*
G01*
X037875D02*
G03*
X037875Y040354I-00008J0D01*
G01*
X039647Y043701D02*
G03*
X039647Y043701I-00008J0D01*
G01*
Y042717D02*
G03*
X039647Y042717I-00008J0D01*
G01*
Y041732D02*
G03*
X039647Y041732I-00008J0D01*
G01*
X041222Y043701D02*
G03*
X041222Y043701I-00008J0D01*
G01*
X042797D02*
G03*
X042797Y043701I-00008J0D01*
G01*
X043781Y035236D02*
G03*
X043781Y035236I-00008J0D01*
G01*
X038663Y032835D02*
G03*
X038663Y032835I-00008J0D01*
G01*
X040041D02*
G03*
X040041Y032835I-00008J0D01*
G01*
X034529Y035827D02*
G03*
X034529Y035827I-00008J0D01*
G01*
X035907D02*
G03*
X035907Y035827I-00008J0D01*
G01*
X037482D02*
G03*
X037482Y035827I-00008J0D01*
G01*
M02*
