M48
;Layer_Color=9474304
;FILE_FORMAT=2:4
INCH,LZ
;TYPE=PLATED
T1F00S00C0.0236
T2F00S00C0.0354
%
T01
X032677Y027165
X034449
X036024
X037992
X040354
X042323
X043701
Y028543
X043893Y030943
X039961Y028937
X030709Y027165
X028937
X027165
Y029134
Y031299
Y033661
Y036024
Y037992
Y039764
Y041535
Y043701
X028346
X029528
X030906
X030709Y032835
X031693
X032677
X034449Y035827
X035827
X037402
X039961Y034843
X040748
X04174Y03479
X043701Y035236
X043897Y031943
X043907Y031443
X039961Y032835
X038583
X040551Y038189
Y038976
X039567Y041732
Y042717
Y043701
X041142
X042717
X037795Y040354
X036417
X034449
X03147Y04057
X03154Y03897
X032087Y041732
Y042717
Y043701
T02
X043386Y036583
Y037583
Y038583
Y040087
Y041087
Y042087
Y043087
M30
