G04 Layer_Color=65535*
%FSTAX24Y24*%
%MOIN*%
G70*
G01*
G75*
%ADD18C,0.0100*%
%ADD19C,0.0150*%
%ADD26C,0.0080*%
%ADD27C,0.0020*%
%ADD28C,0.0079*%
D18*
X031175Y043725D02*
Y043225D01*
X031275Y043125D01*
X031475D01*
X031575Y043225D01*
Y043725D01*
X031775Y043125D02*
X031975D01*
X031875D01*
Y043725D01*
X031775Y043625D01*
X027765Y04393D02*
X027665Y04403D01*
X027466D01*
X027366Y04393D01*
Y04383D01*
X027466Y04373D01*
X027665D01*
X027765Y04363D01*
Y04353D01*
X027665Y04343D01*
X027466D01*
X027366Y04353D01*
X027965Y04343D02*
X028165D01*
X028065D01*
Y04403D01*
X027965Y04393D01*
X040215Y038385D02*
Y038985D01*
X040515D01*
X040615Y038885D01*
Y038685D01*
X040515Y038585D01*
X040215D01*
X040415D02*
X040615Y038385D01*
X041214Y038985D02*
X041015Y038885D01*
X040815Y038685D01*
Y038485D01*
X040915Y038385D01*
X041115D01*
X041214Y038485D01*
Y038585D01*
X041115Y038685D01*
X040815D01*
X041605Y037015D02*
Y037615D01*
X041905D01*
X042005Y037515D01*
Y037315D01*
X041905Y037215D01*
X041605D01*
X041805D02*
X042005Y037015D01*
X042604Y037615D02*
X042205D01*
Y037315D01*
X042405Y037415D01*
X042505D01*
X042604Y037315D01*
Y037115D01*
X042505Y037015D01*
X042305D01*
X042205Y037115D01*
X040205Y034895D02*
Y035495D01*
X040505D01*
X040605Y035395D01*
Y035195D01*
X040505Y035095D01*
X040205D01*
X040405D02*
X040605Y034895D01*
X041105D02*
Y035495D01*
X040805Y035195D01*
X041204D01*
X028937Y039905D02*
Y040505D01*
X029237D01*
X029337Y040405D01*
Y040205D01*
X029237Y040105D01*
X028937D01*
X029137D02*
X029337Y039905D01*
X029537Y040405D02*
X029637Y040505D01*
X029837D01*
X029937Y040405D01*
Y040305D01*
X029837Y040205D01*
X029737D01*
X029837D01*
X029937Y040105D01*
Y040005D01*
X029837Y039905D01*
X029637D01*
X029537Y040005D01*
X028937Y038895D02*
Y039495D01*
X029237D01*
X029337Y039395D01*
Y039195D01*
X029237Y039095D01*
X028937D01*
X029137D02*
X029337Y038895D01*
X029937D02*
X029537D01*
X029937Y039295D01*
Y039395D01*
X029837Y039495D01*
X029637D01*
X029537Y039395D01*
X040215Y036975D02*
Y037575D01*
X040515D01*
X040615Y037475D01*
Y037275D01*
X040515Y037175D01*
X040215D01*
X040415D02*
X040615Y036975D01*
X040815D02*
X041015D01*
X040915D01*
Y037575D01*
X040815Y037475D01*
X042885Y035175D02*
Y035775D01*
X043185D01*
X043285Y035675D01*
Y035475D01*
X043185Y035375D01*
X042885D01*
X043884Y035175D02*
X043485D01*
X043884Y035575D01*
Y035675D01*
X043785Y035775D01*
X043585D01*
X043485Y035675D01*
X039665Y042815D02*
Y043415D01*
X039965D01*
X040065Y043315D01*
Y043115D01*
X039965Y043015D01*
X039665D01*
X040265Y042815D02*
X040465D01*
X040365D01*
Y043415D01*
X040265Y043315D01*
X029795Y033475D02*
X029695Y033375D01*
Y033175D01*
X029795Y033075D01*
X030195D01*
X030295Y033175D01*
Y033375D01*
X030195Y033475D01*
X030295Y034074D02*
Y033675D01*
X029895Y034074D01*
X029795D01*
X029695Y033975D01*
Y033775D01*
X029795Y033675D01*
X029337Y041248D02*
X029237Y041348D01*
X029037D01*
X028937Y041248D01*
Y040848D01*
X029037Y040748D01*
X029237D01*
X029337Y040848D01*
X029537Y040748D02*
X029737D01*
X029637D01*
Y041348D01*
X029537Y041248D01*
X030685Y033475D02*
X030585Y033375D01*
Y033175D01*
X030685Y033075D01*
X031085D01*
X031185Y033175D01*
Y033375D01*
X031085Y033475D01*
X030685Y033675D02*
X030585Y033775D01*
Y033975D01*
X030685Y034074D01*
X030785D01*
X030885Y033975D01*
Y033875D01*
Y033975D01*
X030985Y034074D01*
X031085D01*
X031185Y033975D01*
Y033775D01*
X031085Y033675D01*
X041105Y043365D02*
X041205Y043465D01*
X041405D01*
X041505Y043365D01*
Y043265D01*
X041405Y043165D01*
X041305D01*
X041405D01*
X041505Y043065D01*
Y042965D01*
X041405Y042865D01*
X041205D01*
X041105Y042965D01*
X041705Y043465D02*
Y043065D01*
X041905Y042865D01*
X042104Y043065D01*
Y043465D01*
X042304Y043365D02*
X042404Y043465D01*
X042604D01*
X042704Y043365D01*
Y043265D01*
X042604Y043165D01*
X042504D01*
X042604D01*
X042704Y043065D01*
Y042965D01*
X042604Y042865D01*
X042404D01*
X042304Y042965D01*
X041505Y042308D02*
X041405Y042408D01*
X041205D01*
X041105Y042308D01*
Y041908D01*
X041205Y041808D01*
X041405D01*
X041505Y041908D01*
Y042108D01*
X041305D01*
X041705Y041808D02*
Y042408D01*
X042104Y041808D01*
Y042408D01*
X042304D02*
Y041808D01*
X042604D01*
X042704Y041908D01*
Y042308D01*
X042604Y042408D01*
X042304D01*
X041105Y041351D02*
X041505D01*
X041305D01*
Y040751D01*
X041705Y041351D02*
X042104Y040751D01*
Y041351D02*
X041705Y040751D01*
X042304Y041351D02*
Y040751D01*
X042604D01*
X042704Y040851D01*
Y041251D01*
X042604Y041351D01*
X042304D01*
X041105Y039695D02*
Y040295D01*
X041405D01*
X041505Y040195D01*
Y039995D01*
X041405Y039895D01*
X041105D01*
X041305D02*
X041505Y039695D01*
X041705Y040295D02*
X042104Y039695D01*
Y040295D02*
X041705Y039695D01*
X042304Y040295D02*
Y039695D01*
X042604D01*
X042704Y039795D01*
Y040195D01*
X042604Y040295D01*
X042304D01*
D19*
X032638Y040945D02*
Y043898D01*
X038937D01*
Y040945D02*
Y043898D01*
Y034449D02*
Y034646D01*
X03815Y034449D02*
X038937D01*
X032638D02*
X033228D01*
X032638D02*
Y034646D01*
X033819Y040354D02*
Y043504D01*
X034213D01*
Y041929D02*
Y043504D01*
Y041929D02*
X034606D01*
Y043504D01*
X035D01*
Y041929D02*
Y043504D01*
Y041929D02*
X035394D01*
Y043504D01*
X035787D01*
Y041929D02*
Y043504D01*
Y041929D02*
X036181D01*
Y043504D01*
X03815D01*
X033819Y041142D02*
X036181D01*
D26*
X028189Y043091D02*
X030079D01*
X028189Y041713D02*
X030079D01*
D27*
X030295Y04123D02*
X031043D01*
X030295Y040896D02*
X031043D01*
X030295D02*
Y04123D01*
X031043Y040896D02*
Y04123D01*
X031024Y040374D02*
X031024Y040728D01*
X030315Y040374D02*
Y040728D01*
Y040374D02*
X031024D01*
X030315Y040728D02*
X031024D01*
X031024Y038799D02*
X031024Y039154D01*
X030315Y038799D02*
Y039154D01*
Y038799D02*
X031024D01*
X030315Y039154D02*
X031024D01*
X040866Y03565D02*
X040866Y036004D01*
X040157Y03565D02*
Y036004D01*
Y03565D02*
X040866D01*
X040157Y036004D02*
X040866D01*
X042283Y036437D02*
X042283Y036791D01*
X041575Y036437D02*
Y036791D01*
Y036437D02*
X042283D01*
X041575Y036791D02*
X042283D01*
X040157Y036437D02*
X040157Y036791D01*
X040866Y036437D02*
Y036791D01*
X040157D02*
X040866D01*
X040157Y036437D02*
X040866D01*
X042283Y038445D02*
X042283Y038799D01*
X041575Y038445D02*
Y038799D01*
Y038445D02*
X042283D01*
X041575Y038799D02*
X042283D01*
X030374Y034232D02*
Y035295D01*
X029783Y034232D02*
Y035295D01*
X030374D01*
X029783Y034232D02*
X030374D01*
X030581Y035138D02*
X030915D01*
X030581Y03439D02*
X030915D01*
Y035138D01*
X030581Y03439D02*
Y035138D01*
D28*
X042886Y043587D02*
X043886D01*
X043886Y039587D01*
X042886D02*
X042886Y043587D01*
X042886Y039587D02*
X043886D01*
Y036083D02*
Y039083D01*
X042886D02*
X043886D01*
X042886Y036083D02*
Y039083D01*
Y036083D02*
X043886D01*
M02*
