G04 Layer_Color=32768*
%FSTAX24Y24*%
%MOIN*%
G70*
G01*
G75*
%ADD26C,0.0080*%
%ADD27C,0.0020*%
%ADD40C,0.0039*%
D26*
X029134Y042126D02*
Y042677D01*
X028819Y042402D02*
X029449D01*
X027559Y043091D02*
X030709D01*
Y041713D02*
Y043091D01*
X027559Y041713D02*
X030709D01*
X027559D02*
Y043091D01*
D27*
X043691Y029173D02*
Y034213D01*
X040955Y029173D02*
Y034213D01*
X043691D01*
X040955Y029173D02*
X043691Y029173D01*
X031043Y040896D02*
Y04123D01*
X030295Y040896D02*
Y04123D01*
Y040896D02*
X031043D01*
X030295Y04123D02*
X031043D01*
X030315Y040728D02*
X031024D01*
X030315Y040374D02*
X031024D01*
X030315D02*
Y040728D01*
X031024Y040374D02*
X031024Y040728D01*
X030315Y039154D02*
X031024D01*
X030315Y038799D02*
X031024D01*
X030315D02*
Y039154D01*
X031024Y038799D02*
X031024Y039154D01*
X040157Y036004D02*
X040866D01*
X040157Y03565D02*
X040866D01*
X040157D02*
Y036004D01*
X040866Y03565D02*
X040866Y036004D01*
X041575Y036791D02*
X042283D01*
X041575Y036437D02*
X042283D01*
X041575D02*
Y036791D01*
X042283Y036437D02*
X042283Y036791D01*
X040157Y036437D02*
X040866D01*
X040157Y036791D02*
X040866D01*
Y036437D02*
Y036791D01*
X040157Y036437D02*
X040157Y036791D01*
X041575Y038799D02*
X042283D01*
X041575Y038445D02*
X042283D01*
X041575D02*
Y038799D01*
X042283Y038445D02*
X042283Y038799D01*
X029783Y034232D02*
X030374D01*
X029783Y035295D02*
X030374D01*
X029783Y034232D02*
Y035295D01*
X030374Y034232D02*
Y035295D01*
X030581Y03439D02*
Y035138D01*
X030915Y03439D02*
Y035138D01*
X030581Y03439D02*
X030915D01*
X030581Y035138D02*
X030915D01*
D40*
X042123Y031693D02*
X042517D01*
X042323Y031499D02*
Y031893D01*
X030669Y040955D02*
Y041171D01*
X030561Y041063D02*
X030778D01*
X030571Y040551D02*
X030768D01*
X030669Y040453D02*
Y04065D01*
X030571Y038976D02*
X030768D01*
X030669Y038878D02*
Y039075D01*
X040413Y035827D02*
X04061D01*
X040512Y035728D02*
Y035925D01*
X041831Y036614D02*
X042028D01*
X041929Y036516D02*
Y036713D01*
X040413Y036614D02*
X04061D01*
X040512Y036516D02*
Y036713D01*
X041831Y038622D02*
X042028D01*
X041929Y038524D02*
Y03872D01*
X029902Y034764D02*
X030256D01*
X030079Y034587D02*
Y034941D01*
X030748Y034656D02*
Y034872D01*
X03064Y034764D02*
X030856D01*
M02*
