G04 Layer_Physical_Order=1*
G04 Layer_Color=255*
%FSTAX24Y24*%
%MOIN*%
G70*
G01*
G75*
%ADD10R,0.0591X0.0591*%
%ADD11R,0.0217X0.0201*%
%ADD12R,0.0177X0.0217*%
%ADD13R,0.1063X0.0394*%
%ADD14R,0.0394X0.0984*%
%ADD15R,0.0374X0.0295*%
%ADD16R,0.0201X0.0217*%
%ADD17C,0.0250*%
%ADD18C,0.0100*%
%ADD19C,0.0150*%
%ADD20C,0.0200*%
%ADD21C,0.0300*%
%ADD22C,0.0591*%
%ADD23R,0.0591X0.0591*%
%ADD24C,0.0472*%
G36*
X044149Y032267D02*
X043993D01*
X043985Y03227D01*
X043897Y032282D01*
X043809Y03227D01*
X043802Y032267D01*
X041995D01*
Y03457D01*
X042034Y03462D01*
X042068Y034702D01*
X042079Y03479D01*
X042068Y034878D01*
X042034Y03496D01*
X04198Y03503D01*
X041936Y035063D01*
Y036394D01*
X041986Y03642D01*
X041998Y036412D01*
X042037Y036404D01*
X042215D01*
X042254Y036412D01*
X042287Y036434D01*
X042288Y036436D01*
X042989D01*
Y036287D01*
X042996Y036248D01*
X043018Y036215D01*
X043052Y036193D01*
X043091Y036185D01*
X043681D01*
X04372Y036193D01*
X043753Y036215D01*
X043775Y036248D01*
X043783Y036287D01*
Y036878D01*
X043775Y036917D01*
X043753Y03695D01*
X04372Y036972D01*
X043681Y03698D01*
X043091D01*
X043052Y036972D01*
X043018Y03695D01*
X042996Y036917D01*
X042989Y036878D01*
Y036793D01*
X042288D01*
X042287Y036795D01*
X042254Y036817D01*
X042215Y036824D01*
X042037D01*
X041998Y036817D01*
X041965Y036795D01*
X041958Y036783D01*
X0419D01*
X041893Y036795D01*
X04186Y036817D01*
X041821Y036824D01*
X041644D01*
X041612Y036818D01*
X040829D01*
X040797Y036824D01*
X04062D01*
X040581Y036817D01*
X040548Y036795D01*
X04054Y036783D01*
X040483D01*
X040476Y036795D01*
X040443Y036817D01*
X040404Y036824D01*
X040226D01*
X040187Y036817D01*
X040154Y036795D01*
X040153Y036793D01*
X039531D01*
Y036811D01*
X039523Y03685D01*
X039501Y036883D01*
X039468Y036905D01*
X039429Y036913D01*
X038366D01*
X038327Y036905D01*
X038294Y036883D01*
X038272Y03685D01*
X038264Y036811D01*
Y036417D01*
X038272Y036378D01*
X038294Y036345D01*
X038327Y036323D01*
X038366Y036315D01*
X039429D01*
X039468Y036323D01*
X039501Y036345D01*
X039523Y036378D01*
X039531Y036417D01*
Y036436D01*
X040153D01*
X040154Y036434D01*
X040187Y036412D01*
X040226Y036404D01*
X040404D01*
X040443Y036412D01*
X040476Y036434D01*
X040483Y036445D01*
X04054D01*
X040548Y036434D01*
X040581Y036412D01*
X04062Y036404D01*
X040797D01*
X040829Y03641D01*
X041528D01*
Y035051D01*
X0415Y03503D01*
X041446Y03496D01*
X041412Y034878D01*
X041401Y03479D01*
X041412Y034702D01*
X041446Y03462D01*
X041485Y03457D01*
Y032267D01*
X030042D01*
X02963Y03268D01*
Y034446D01*
X029924Y034741D01*
X030606D01*
X030609Y034738D01*
X030648Y034731D01*
X030848D01*
X030887Y034738D01*
X030891Y034741D01*
X033268D01*
X033307Y034748D01*
X03334Y03477D01*
X033362Y034804D01*
X03337Y034843D01*
Y035315D01*
X033362Y035354D01*
X03334Y035387D01*
X033307Y035409D01*
X033268Y035417D01*
X030952D01*
Y036157D01*
X030952Y036157D01*
X030936Y036235D01*
X030892Y036301D01*
X030892Y036301D01*
X030676Y036517D01*
Y038756D01*
X030726Y038782D01*
X030739Y038774D01*
X030778Y038766D01*
X030955D01*
X030994Y038774D01*
X031027Y038796D01*
X031028Y038798D01*
X031248D01*
X0313Y03873D01*
X03137Y038676D01*
X031452Y038642D01*
X03154Y038631D01*
X031628Y038642D01*
X03171Y038676D01*
X03178Y03873D01*
X031832Y038798D01*
X032044D01*
Y03878D01*
X032051Y038741D01*
X032074Y038707D01*
X032107Y038685D01*
X032146Y038678D01*
X033209D01*
X033248Y038685D01*
X033281Y038707D01*
X033303Y038741D01*
X033311Y03878D01*
Y039173D01*
X033303Y039212D01*
X033281Y039245D01*
X033248Y039267D01*
X033209Y039275D01*
X032146D01*
X032107Y039267D01*
X032074Y039245D01*
X032051Y039212D01*
X032044Y039173D01*
Y039155D01*
X031822D01*
X03178Y03921D01*
X03171Y039264D01*
X031628Y039298D01*
X03154Y039309D01*
X031452Y039298D01*
X03137Y039264D01*
X0313Y03921D01*
X031258Y039155D01*
X031028D01*
X031027Y039157D01*
X030994Y039179D01*
X030955Y039187D01*
X030778D01*
X030739Y039179D01*
X030726Y039171D01*
X030676Y039196D01*
Y040331D01*
X030726Y040357D01*
X030739Y040349D01*
X030778Y040341D01*
X030955D01*
X030994Y040349D01*
X031027Y040371D01*
X031028Y040373D01*
X031198D01*
X03123Y04033D01*
X0313Y040276D01*
X031382Y040242D01*
X03147Y040231D01*
X031558Y040242D01*
X03164Y040276D01*
X03171Y04033D01*
X031742Y040373D01*
X032044D01*
Y040354D01*
X032051Y040315D01*
X032074Y040282D01*
X032107Y04026D01*
X032146Y040252D01*
X033209D01*
X033248Y04026D01*
X033281Y040282D01*
X033303Y040315D01*
X033311Y040354D01*
Y040748D01*
X033339Y040782D01*
X038236D01*
X038264Y040748D01*
Y040354D01*
X038272Y040315D01*
X038294Y040282D01*
X038327Y04026D01*
X038366Y040252D01*
X039429D01*
X039468Y04026D01*
X039501Y040282D01*
X039523Y040315D01*
X03953Y040347D01*
X04285D01*
X042928Y040363D01*
X042995Y040407D01*
X043288Y040701D01*
X043386Y040688D01*
X043489Y040702D01*
X043585Y040741D01*
X043668Y040805D01*
X043731Y040887D01*
X043771Y040983D01*
X043785Y041087D01*
X043771Y04119D01*
X043731Y041286D01*
X043668Y041369D01*
X043585Y041432D01*
X043489Y041472D01*
X043386Y041485D01*
X043283Y041472D01*
X043186Y041432D01*
X043104Y041369D01*
X043041Y041286D01*
X043001Y04119D01*
X042987Y041087D01*
X043Y040989D01*
X042766Y040755D01*
X03953D01*
X039523Y040787D01*
X039501Y04082D01*
X039468Y040842D01*
X039429Y04085D01*
X03915D01*
X039114Y0409D01*
X039119Y040925D01*
Y044149D01*
X044149D01*
Y032267D01*
D02*
G37*
G36*
X032456Y040925D02*
X032461Y0409D01*
X032425Y04085D01*
X032146D01*
X032107Y040842D01*
X032074Y04082D01*
X032051Y040787D01*
X032044Y040748D01*
Y04073D01*
X031768D01*
X031764Y04074D01*
X03171Y04081D01*
X03164Y040864D01*
X031558Y040898D01*
X03147Y040909D01*
X031382Y040898D01*
X0313Y040864D01*
X03123Y04081D01*
X031176Y04074D01*
X031172Y04073D01*
X031045D01*
Y040917D01*
X031049Y040924D01*
X031057Y040963D01*
Y041163D01*
X031049Y041202D01*
X031045Y041209D01*
Y041434D01*
X031045Y041434D01*
X031031Y041502D01*
X030992Y04156D01*
X030848Y041705D01*
Y042004D01*
X030965D01*
X031004Y042012D01*
X031037Y042034D01*
X031059Y042067D01*
X031067Y042106D01*
Y042697D01*
X031059Y042736D01*
X031037Y042769D01*
X031004Y042791D01*
X030965Y042799D01*
X030374D01*
X030335Y042791D01*
X030302Y042769D01*
X03028Y042736D01*
X030272Y042697D01*
Y042106D01*
X03028Y042067D01*
X030302Y042034D01*
X030335Y042012D01*
X030374Y042004D01*
X030491D01*
Y041631D01*
X030504Y041562D01*
X030543Y041505D01*
X030688Y04136D01*
Y04125D01*
X030666Y041235D01*
X030644Y041202D01*
X030636Y041163D01*
Y040963D01*
X030644Y040924D01*
X030666Y04089D01*
X030688Y040876D01*
Y04074D01*
X030638Y040725D01*
X030633Y040732D01*
X0306Y040754D01*
X030561Y040761D01*
X030384D01*
X030345Y040754D01*
X030312Y040732D01*
X03029Y040698D01*
X030282Y040659D01*
Y040618D01*
X030269Y040551D01*
Y038976D01*
Y036432D01*
X030284Y036354D01*
X030328Y036288D01*
X030544Y036072D01*
Y035417D01*
X029331D01*
X029292Y035409D01*
X029259Y035387D01*
X02855Y034678D01*
X028528Y034645D01*
X02852Y034606D01*
Y031969D01*
X028528Y031929D01*
X02855Y031896D01*
X02981Y030637D01*
X029843Y030614D01*
X029882Y030607D01*
X043871D01*
X043893Y030604D01*
X043915Y030607D01*
X044149D01*
Y026718D01*
X026718D01*
Y044149D01*
X032456D01*
Y040925D01*
D02*
G37*
G36*
X033268Y034843D02*
X029882D01*
X029528Y034488D01*
Y032638D01*
X03Y032165D01*
X044149D01*
Y030709D01*
X029882D01*
X028622Y031969D01*
Y034606D01*
X029331Y035315D01*
X033268D01*
Y034843D01*
D02*
G37*
%LPC*%
G36*
X037953Y035082D02*
X037559D01*
X03752Y035075D01*
X037487Y035052D01*
X037465Y035019D01*
X037457Y03498D01*
Y033996D01*
X037465Y033957D01*
X037487Y033924D01*
X03752Y033902D01*
X037559Y033894D01*
X037953D01*
X037992Y033902D01*
X038025Y033924D01*
X038047Y033957D01*
X038055Y033996D01*
Y03498D01*
X038047Y035019D01*
X038025Y035052D01*
X037992Y035075D01*
X037953Y035082D01*
D02*
G37*
G36*
X037165D02*
X036772D01*
X036733Y035075D01*
X0367Y035052D01*
X036677Y035019D01*
X03667Y03498D01*
Y033996D01*
X036677Y033957D01*
X0367Y033924D01*
X036733Y033902D01*
X036772Y033894D01*
X037165D01*
X037204Y033902D01*
X037237Y033924D01*
X03726Y033957D01*
X037267Y033996D01*
Y03498D01*
X03726Y035019D01*
X037237Y035052D01*
X037204Y035075D01*
X037165Y035082D01*
D02*
G37*
G36*
X039429Y036126D02*
X038366D01*
X038327Y036118D01*
X038294Y036096D01*
X038272Y036063D01*
X038264Y036024D01*
Y03563D01*
X038272Y035591D01*
X038294Y035558D01*
X038327Y035536D01*
X038366Y035528D01*
X039429D01*
X039468Y035536D01*
X039501Y035558D01*
X039523Y035591D01*
X039531Y03563D01*
Y035648D01*
X040153D01*
X040154Y035646D01*
X040187Y035624D01*
X040226Y035617D01*
X040404D01*
X040443Y035624D01*
X040476Y035646D01*
X040498Y035679D01*
X040505Y035719D01*
Y035935D01*
X040498Y035974D01*
X040476Y036007D01*
X040443Y036029D01*
X040404Y036037D01*
X040226D01*
X040187Y036029D01*
X040154Y036007D01*
X040153Y036005D01*
X039531D01*
Y036024D01*
X039523Y036063D01*
X039501Y036096D01*
X039468Y036118D01*
X039429Y036126D01*
D02*
G37*
G36*
X033209D02*
X032146D01*
X032107Y036118D01*
X032074Y036096D01*
X032051Y036063D01*
X032044Y036024D01*
Y03563D01*
X032051Y035591D01*
X032074Y035558D01*
X032107Y035536D01*
X032146Y035528D01*
X033209D01*
X033248Y035536D01*
X033281Y035558D01*
X033303Y035591D01*
X033311Y03563D01*
Y036024D01*
X033303Y036063D01*
X033281Y036096D01*
X033248Y036118D01*
X033209Y036126D01*
D02*
G37*
G36*
X034803Y035082D02*
X034409D01*
X03437Y035075D01*
X034337Y035052D01*
X034315Y035019D01*
X034307Y03498D01*
Y033996D01*
X034315Y033957D01*
X034337Y033924D01*
X03437Y033902D01*
X034409Y033894D01*
X034803D01*
X034842Y033902D01*
X034875Y033924D01*
X034897Y033957D01*
X034905Y033996D01*
Y03498D01*
X034897Y035019D01*
X034875Y035052D01*
X034842Y035075D01*
X034803Y035082D01*
D02*
G37*
G36*
X034016D02*
X033622D01*
X033583Y035075D01*
X03355Y035052D01*
X033528Y035019D01*
X03352Y03498D01*
Y033996D01*
X033528Y033957D01*
X03355Y033924D01*
X033583Y033902D01*
X033622Y033894D01*
X034016D01*
X034055Y033902D01*
X034088Y033924D01*
X03411Y033957D01*
X034118Y033996D01*
Y03498D01*
X03411Y035019D01*
X034088Y035052D01*
X034055Y035075D01*
X034016Y035082D01*
D02*
G37*
G36*
X036378D02*
X035984D01*
X035945Y035075D01*
X035912Y035052D01*
X03589Y035019D01*
X035882Y03498D01*
Y033996D01*
X03589Y033957D01*
X035912Y033924D01*
X035945Y033902D01*
X035984Y033894D01*
X036378D01*
X036417Y033902D01*
X03645Y033924D01*
X036472Y033957D01*
X03648Y033996D01*
Y03498D01*
X036472Y035019D01*
X03645Y035052D01*
X036417Y035075D01*
X036378Y035082D01*
D02*
G37*
G36*
X035591D02*
X035197D01*
X035158Y035075D01*
X035125Y035052D01*
X035103Y035019D01*
X035095Y03498D01*
Y033996D01*
X035103Y033957D01*
X035125Y033924D01*
X035158Y033902D01*
X035197Y033894D01*
X035591D01*
X03563Y033902D01*
X035663Y033924D01*
X035685Y033957D01*
X035693Y033996D01*
Y03498D01*
X035685Y035019D01*
X035663Y035052D01*
X03563Y035075D01*
X035591Y035082D01*
D02*
G37*
G36*
X033209Y036913D02*
X032146D01*
X032107Y036905D01*
X032074Y036883D01*
X032051Y03685D01*
X032044Y036811D01*
Y036417D01*
X032051Y036378D01*
X032074Y036345D01*
X032107Y036323D01*
X032146Y036315D01*
X033209D01*
X033248Y036323D01*
X033281Y036345D01*
X033303Y036378D01*
X033311Y036417D01*
Y036811D01*
X033303Y03685D01*
X033281Y036883D01*
X033248Y036905D01*
X033209Y036913D01*
D02*
G37*
G36*
Y040063D02*
X032146D01*
X032107Y040055D01*
X032074Y040033D01*
X032051Y04D01*
X032044Y039961D01*
Y039567D01*
X032051Y039528D01*
X032074Y039495D01*
X032107Y039473D01*
X032146Y039465D01*
X033209D01*
X033248Y039473D01*
X033281Y039495D01*
X033303Y039528D01*
X033311Y039567D01*
Y039961D01*
X033303Y04D01*
X033281Y040033D01*
X033248Y040055D01*
X033209Y040063D01*
D02*
G37*
G36*
X043386Y038981D02*
X043283Y038968D01*
X043186Y038928D01*
X043104Y038865D01*
X043055Y0388D01*
X042288D01*
X042287Y038802D01*
X042254Y038825D01*
X042215Y038832D01*
X042037D01*
X041998Y038825D01*
X041965Y038802D01*
X041943Y038769D01*
X041935Y03873D01*
Y038514D01*
X041943Y038475D01*
X041965Y038442D01*
X041998Y03842D01*
X042037Y038412D01*
X042215D01*
X042254Y03842D01*
X042287Y038442D01*
X042288Y038444D01*
X043016D01*
X043041Y038383D01*
X043104Y038301D01*
X043186Y038237D01*
X043283Y038198D01*
X043386Y038184D01*
X043489Y038198D01*
X043585Y038237D01*
X043668Y038301D01*
X043731Y038383D01*
X043771Y038479D01*
X043785Y038583D01*
X043771Y038686D01*
X043731Y038782D01*
X043668Y038865D01*
X043585Y038928D01*
X043489Y038968D01*
X043386Y038981D01*
D02*
G37*
G36*
X043681Y043484D02*
X043091D01*
X043052Y043476D01*
X043018Y043454D01*
X042996Y043421D01*
X042989Y043382D01*
Y042791D01*
X042996Y042752D01*
X043018Y042719D01*
X043052Y042697D01*
X043091Y042689D01*
X043681D01*
X04372Y042697D01*
X043753Y042719D01*
X043775Y042752D01*
X043783Y042791D01*
Y043382D01*
X043775Y043421D01*
X043753Y043454D01*
X04372Y043476D01*
X043681Y043484D01*
D02*
G37*
G36*
X043386Y040485D02*
X043283Y040472D01*
X043186Y040432D01*
X043104Y040369D01*
X043041Y040286D01*
X043001Y04019D01*
X042987Y040087D01*
X042997Y04001D01*
X042959Y039968D01*
X03953D01*
X039523Y04D01*
X039501Y040033D01*
X039468Y040055D01*
X039429Y040063D01*
X038366D01*
X038327Y040055D01*
X038294Y040033D01*
X038272Y04D01*
X038264Y039961D01*
Y039567D01*
X038272Y039528D01*
X038294Y039495D01*
X038327Y039473D01*
X038366Y039465D01*
X039429D01*
X039468Y039473D01*
X039501Y039495D01*
X039523Y039528D01*
X03953Y03956D01*
X043063D01*
X043141Y039575D01*
X043207Y03962D01*
X043288Y039701D01*
X043386Y039688D01*
X043489Y039702D01*
X043585Y039741D01*
X043668Y039805D01*
X043731Y039887D01*
X043771Y039983D01*
X043785Y040087D01*
X043771Y04019D01*
X043731Y040286D01*
X043668Y040369D01*
X043585Y040432D01*
X043489Y040472D01*
X043386Y040485D01*
D02*
G37*
G36*
X039429Y039275D02*
X038366D01*
X038327Y039267D01*
X038294Y039245D01*
X038272Y039212D01*
X038264Y039173D01*
Y03878D01*
X038272Y038741D01*
X038294Y038707D01*
X038327Y038685D01*
X038366Y038678D01*
X039429D01*
X039468Y038685D01*
X039501Y038707D01*
X039523Y038741D01*
X039531Y03878D01*
Y039173D01*
X039523Y039212D01*
X039501Y039245D01*
X039468Y039267D01*
X039429Y039275D01*
D02*
G37*
G36*
X043386Y037981D02*
X043283Y037968D01*
X043186Y037928D01*
X043104Y037865D01*
X043041Y037782D01*
X043001Y037686D01*
X042987Y037583D01*
X042985Y03758D01*
X039531D01*
Y037598D01*
X039523Y037637D01*
X039501Y037671D01*
X039468Y037693D01*
X039429Y0377D01*
X038366D01*
X038327Y037693D01*
X038294Y037671D01*
X038272Y037637D01*
X038264Y037598D01*
Y037205D01*
X038272Y037166D01*
X038294Y037133D01*
X038327Y037111D01*
X038366Y037103D01*
X039429D01*
X039468Y037111D01*
X039501Y037133D01*
X039523Y037166D01*
X039531Y037205D01*
Y037223D01*
X043205D01*
X043216Y037225D01*
X043283Y037198D01*
X043386Y037184D01*
X043489Y037198D01*
X043585Y037237D01*
X043668Y037301D01*
X043731Y037383D01*
X043771Y037479D01*
X043785Y037583D01*
X043771Y037686D01*
X043731Y037782D01*
X043668Y037865D01*
X043585Y037928D01*
X043489Y037968D01*
X043386Y037981D01*
D02*
G37*
G36*
X033209Y0377D02*
X032146D01*
X032107Y037693D01*
X032074Y037671D01*
X032051Y037637D01*
X032044Y037598D01*
Y037205D01*
X032051Y037166D01*
X032074Y037133D01*
X032107Y037111D01*
X032146Y037103D01*
X033209D01*
X033248Y037111D01*
X033281Y037133D01*
X033303Y037166D01*
X033311Y037205D01*
Y037598D01*
X033303Y037637D01*
X033281Y037671D01*
X033248Y037693D01*
X033209Y0377D01*
D02*
G37*
G36*
X039429Y038488D02*
X038366D01*
X038327Y03848D01*
X038294Y038458D01*
X038272Y038425D01*
X038264Y038386D01*
Y037992D01*
X038272Y037953D01*
X038294Y03792D01*
X038327Y037898D01*
X038366Y03789D01*
X039429D01*
X039468Y037898D01*
X039501Y03792D01*
X039523Y037953D01*
X039531Y037992D01*
Y038386D01*
X039523Y038425D01*
X039501Y038458D01*
X039468Y03848D01*
X039429Y038488D01*
D02*
G37*
G36*
X033209D02*
X032146D01*
X032107Y03848D01*
X032074Y038458D01*
X032051Y038425D01*
X032044Y038386D01*
Y037992D01*
X032051Y037953D01*
X032074Y03792D01*
X032107Y037898D01*
X032146Y03789D01*
X033209D01*
X033248Y037898D01*
X033281Y03792D01*
X033303Y037953D01*
X033311Y037992D01*
Y038386D01*
X033303Y038425D01*
X033281Y038458D01*
X033248Y03848D01*
X033209Y038488D01*
D02*
G37*
%LPD*%
D10*
X027598Y042402D02*
D03*
X030669D02*
D03*
D11*
X030492Y041063D02*
D03*
X030846D02*
D03*
D12*
X030866Y040551D02*
D03*
X030472D02*
D03*
X030866Y038976D02*
D03*
X030472D02*
D03*
X040709Y035827D02*
D03*
X040315D02*
D03*
X042126Y036614D02*
D03*
X041732D02*
D03*
X040315D02*
D03*
X040709D02*
D03*
X042126Y038622D02*
D03*
X041732D02*
D03*
D13*
X038898Y040551D02*
D03*
Y039764D02*
D03*
Y038976D02*
D03*
Y038189D02*
D03*
Y037402D02*
D03*
Y036614D02*
D03*
Y035827D02*
D03*
Y035039D02*
D03*
X032677Y040551D02*
D03*
Y039764D02*
D03*
Y038976D02*
D03*
Y038189D02*
D03*
Y037402D02*
D03*
Y036614D02*
D03*
Y035827D02*
D03*
Y035039D02*
D03*
D14*
X033819Y034488D02*
D03*
X034606D02*
D03*
X035394D02*
D03*
X036181D02*
D03*
X036969D02*
D03*
X037756D02*
D03*
D15*
X030079Y03503D02*
D03*
Y034498D02*
D03*
D16*
X030748Y034941D02*
D03*
Y034587D02*
D03*
D17*
X032667Y03503D02*
X032677Y035039D01*
X03254Y03503D02*
X032667D01*
D18*
X03246Y038976D02*
X032677D01*
D19*
X030669Y041631D02*
Y042402D01*
Y041631D02*
X030866Y041434D01*
X038898Y035827D02*
X040315D01*
X038898Y036614D02*
X040315D01*
X038898Y037402D02*
X043205D01*
X043386Y037583D01*
X042126Y038622D02*
X043346D01*
X043386Y038583D01*
X042126Y036614D02*
X043354D01*
X043386Y036583D01*
X030866Y038976D02*
X03246D01*
X030866Y040551D02*
Y041434D01*
Y040551D02*
X032677D01*
D20*
X040709Y036614D02*
X041732D01*
X038898Y039764D02*
X043063D01*
X043386Y040087D01*
X038898Y040551D02*
X04285D01*
X043386Y041087D01*
X030472Y036432D02*
Y038976D01*
Y040551D01*
Y036432D02*
X030748Y036157D01*
Y034941D02*
Y03503D01*
Y036157D01*
X041732Y03479D02*
Y036614D01*
D21*
X04169Y031443D02*
X04174Y031493D01*
X02922Y03188D02*
X029657Y031443D01*
X04169D01*
X043907D01*
X02922Y03188D02*
Y03449D01*
X02976Y03503D01*
X030079D01*
X04174Y031493D02*
Y03479D01*
X030079Y03503D02*
X030748D01*
X03254D01*
D22*
X043386Y040087D02*
D03*
Y041087D02*
D03*
Y042087D02*
D03*
Y037583D02*
D03*
Y038583D02*
D03*
D23*
Y043087D02*
D03*
Y036583D02*
D03*
D24*
X043907Y031443D02*
D03*
X043897Y031943D02*
D03*
X043893Y030943D02*
D03*
X03154Y03897D02*
D03*
X03147Y04057D02*
D03*
X04174Y03479D02*
D03*
X032087Y043701D02*
D03*
Y042717D02*
D03*
Y041732D02*
D03*
X030906Y043701D02*
D03*
X029528D02*
D03*
X028346D02*
D03*
X027165D02*
D03*
Y041535D02*
D03*
Y039764D02*
D03*
Y037992D02*
D03*
Y036024D02*
D03*
Y033661D02*
D03*
Y031299D02*
D03*
Y029134D02*
D03*
Y027165D02*
D03*
X028937D02*
D03*
X030709D02*
D03*
X032677D02*
D03*
X034449D02*
D03*
X036024D02*
D03*
X037992D02*
D03*
X040354D02*
D03*
X042323D02*
D03*
X043701D02*
D03*
Y028543D02*
D03*
X039961Y028937D02*
D03*
X030709Y032835D02*
D03*
X031693D02*
D03*
X032677D02*
D03*
X039961Y034843D02*
D03*
X040748D02*
D03*
X040551Y038976D02*
D03*
Y038189D02*
D03*
X034449Y040354D02*
D03*
X036417D02*
D03*
X037795D02*
D03*
X039567Y043701D02*
D03*
Y042717D02*
D03*
Y041732D02*
D03*
X041142Y043701D02*
D03*
X042717D02*
D03*
X043701Y035236D02*
D03*
X038583Y032835D02*
D03*
X039961D02*
D03*
X034449Y035827D02*
D03*
X035827D02*
D03*
X037402D02*
D03*
M02*
